# xmcd
#
# Track frame offsets:
#	150
#	17764
#	33122
#	53005
#	68996
#	86961
#	105482
#	124069
#	142308
#	163613
#	178976
#	197106
#
# Disc length: 2845 seconds
#
# Revision: 0
# Processed by: cddbd v1.5.2PL0 Copyright (c) Steve Scherf et al.
# Submitted via: dBpowerAMP V4.0
#
DISCID=ab0b1b0c
DTITLE=Carter and  Carter - Leap Before You Look
DYEAR=2007
DGENRE=Country
TTITLE0=Run Away
TTITLE1=The Best  Things in Life are Free
TTITLE2=My Little Girl
TTITLE3=When God Takes a Photograph
TTITLE4=Ride
TTITLE5=Puttin' Off 'Til Tomorrow
TTITLE6=Slow Dancing at Midnight
TTITLE7=My Motsher's  Face 
TTITLE8=Open Road 
TTITLE9=Leap Before You Look
TTITLE10=Play That Song 
TTITLE11=Home away From Home
EXTD=
EXTT0=
EXTT1=
EXTT2=
EXTT3=
EXTT4=
EXTT5=
EXTT6=
EXTT7=
EXTT8=
EXTT9=
EXTT10=
EXTT11=
PLAYORDER=
